HIERARCHY
ROOT Hips
{
	OFFSET 0.000000 100.481300 0.000000
	CHANNELS 6 Xposition Yposition Zposition Xrotation Yrotation Zrotation
	JOINT Spine
	{
		OFFSET -0.279200 12.230698 -2.892100
		CHANNELS 3 Xrotation Yrotation Zrotation
		JOINT Spine1
		{
			OFFSET -0.325700 14.269203 -3.374200
			CHANNELS 3 Xrotation Yrotation Zrotation
			JOINT Spine2
			{
				OFFSET -0.372300 16.307602 -0.352600
				CHANNELS 3 Xrotation Yrotation Zrotation
				JOINT Neck
				{
					OFFSET -0.418800 17.814194 8.416900
					CHANNELS 3 Xrotation Yrotation Zrotation
					JOINT Head
					{
						OFFSET 0.000000 7.031097 3.806800
						CHANNELS 3 Xrotation Yrotation Zrotation
						JOINT HeadTop_End
						{
							OFFSET 0.000000 24.646606 12.978600
							CHANNELS 3 Xrotation Yrotation Zrotation
							End Site
							{
								OFFSET 0.000000 27.854965 0.000000
							}
						}
					}
				}
				JOINT LeftShoulder
				{
					OFFSET 16.952999 14.495407 -7.737500
					CHANNELS 3 Xrotation Yrotation Zrotation
					JOINT LeftArm
					{
						OFFSET 9.308998 -2.777710 0.208600
						CHANNELS 3 Xrotation Yrotation Zrotation
						JOINT LeftForeArm
						{
							OFFSET 29.972298 0.000000 0.000000
							CHANNELS 3 Xrotation Yrotation Zrotation
							JOINT LeftHand
							{
								OFFSET 26.026505 0.000000 0.000000
								CHANNELS 3 Xrotation Yrotation Zrotation
								JOINT LeftHandThumb1
								{
									OFFSET 12.240501 -7.147949 9.207150
									CHANNELS 3 Xrotation Yrotation Zrotation
									JOINT LeftHandThumb2
									{
										OFFSET 4.138618 -2.389435 2.389433
										CHANNELS 3 Xrotation Yrotation Zrotation
										JOINT LeftHandThumb3
										{
											OFFSET 2.726913 -1.574387 1.574386
											CHANNELS 3 Xrotation Yrotation Zrotation
											JOINT LeftHandThumb4
											{
												OFFSET 3.941010 -2.275345 2.275342
												CHANNELS 3 Xrotation Yrotation Zrotation
												End Site
												{
													OFFSET -0.005798 5.087799 0.009903
												}
											}
										}
									}
								}
								JOINT LeftHandIndex1
								{
									OFFSET 24.424698 -1.985611 5.953459
									CHANNELS 3 Xrotation Yrotation Zrotation
									JOINT LeftHandIndex2
									{
										OFFSET 6.426697 0.000000 0.000000
										CHANNELS 3 Xrotation Yrotation Zrotation
										JOINT LeftHandIndex3
										{
											OFFSET 5.337898 0.000000 0.000000
											CHANNELS 3 Xrotation Yrotation Zrotation
											JOINT LeftHandIndex4
											{
												OFFSET 4.409401 0.000000 0.000000
												CHANNELS 3 Xrotation Yrotation Zrotation
												End Site
												{
													OFFSET 0.000000 4.409363 0.014373
												}
											}
										}
									}
								}
								JOINT LeftHandMiddle1
								{
									OFFSET 23.810104 0.000000 0.000000
									CHANNELS 3 Xrotation Yrotation Zrotation
									JOINT LeftHandMiddle2
									{
										OFFSET 7.176498 0.000000 0.000000
										CHANNELS 3 Xrotation Yrotation Zrotation
										JOINT LeftHandMiddle3
										{
											OFFSET 6.774902 0.000000 0.000000
											CHANNELS 3 Xrotation Yrotation Zrotation
											JOINT LeftHandMiddle4
											{
												OFFSET 5.403328 0.000000 0.000000
												CHANNELS 3 Xrotation Yrotation Zrotation
												End Site
												{
													OFFSET -0.027702 5.403244 0.017414
												}
											}
										}
									}
								}
								JOINT LeftHandRing1
								{
									OFFSET 22.908401 -0.839279 -6.020567
									CHANNELS 3 Xrotation Yrotation Zrotation
									JOINT LeftHandRing2
									{
										OFFSET 6.337502 0.000000 0.000000
										CHANNELS 3 Xrotation Yrotation Zrotation
										JOINT LeftHandRing3
										{
											OFFSET 5.779297 0.000000 0.000000
											CHANNELS 3 Xrotation Yrotation Zrotation
											JOINT LeftHandRing4
											{
												OFFSET 4.965698 0.000000 0.000000
												CHANNELS 3 Xrotation Yrotation Zrotation
												End Site
												{
													OFFSET 0.000000 4.965668 0.016186
												}
											}
										}
									}
								}
								JOINT LeftHandPinky1
								{
									OFFSET 20.037003 -1.530319 -10.950146
									CHANNELS 3 Xrotation Yrotation Zrotation
									JOINT LeftHandPinky2
									{
										OFFSET 5.254700 0.000000 0.000000
										CHANNELS 3 Xrotation Yrotation Zrotation
										JOINT LeftHandPinky3
										{
											OFFSET 4.810204 0.000000 0.000000
											CHANNELS 3 Xrotation Yrotation Zrotation
											JOINT LeftHandPinky4
											{
												OFFSET 3.647202 0.000000 0.000000
												CHANNELS 3 Xrotation Yrotation Zrotation
												End Site
												{
													OFFSET 0.000000 3.647186 0.011889
												}
											}
										}
									}
								}
							}
						}
					}
				}
				JOINT RightShoulder
				{
					OFFSET -15.141001 14.495407 -7.737500
					CHANNELS 3 Xrotation Yrotation Zrotation
					JOINT RightArm
					{
						OFFSET -9.308998 -2.777710 0.208500
						CHANNELS 3 Xrotation Yrotation Zrotation
						JOINT RightForeArm
						{
							OFFSET -29.972300 0.000000 0.000000
							CHANNELS 3 Xrotation Yrotation Zrotation
							JOINT RightHand
							{
								OFFSET -26.026505 0.000000 0.000000
								CHANNELS 3 Xrotation Yrotation Zrotation
								JOINT RightHandThumb1
								{
									OFFSET -12.240601 -7.148026 9.207092
									CHANNELS 3 Xrotation Yrotation Zrotation
									JOINT RightHandThumb2
									{
										OFFSET -4.138618 -2.389435 2.389433
										CHANNELS 3 Xrotation Yrotation Zrotation
										JOINT RightHandThumb3
										{
											OFFSET -2.726974 -1.574417 1.574421
											CHANNELS 3 Xrotation Yrotation Zrotation
											JOINT RightHandThumb4
											{
												OFFSET -3.941010 -2.275345 2.275343
												CHANNELS 3 Xrotation Yrotation Zrotation
												End Site
												{
													OFFSET 0.005814 5.087799 0.009927
												}
											}
										}
									}
								}
								JOINT RightHandIndex1
								{
									OFFSET -24.424698 -1.985657 5.953444
									CHANNELS 3 Xrotation Yrotation Zrotation
									JOINT RightHandIndex2
									{
										OFFSET -6.426697 0.000000 0.000000
										CHANNELS 3 Xrotation Yrotation Zrotation
										JOINT RightHandIndex3
										{
											OFFSET -5.337898 0.000000 0.000000
											CHANNELS 3 Xrotation Yrotation Zrotation
											JOINT RightHandIndex4
											{
												OFFSET -4.409401 0.000000 0.000000
												CHANNELS 3 Xrotation Yrotation Zrotation
												End Site
												{
													OFFSET 0.000000 4.409363 0.014408
												}
											}
										}
									}
								}
								JOINT RightHandMiddle1
								{
									OFFSET -23.810097 0.000000 0.000000
									CHANNELS 3 Xrotation Yrotation Zrotation
									JOINT RightHandMiddle2
									{
										OFFSET -7.176498 0.000000 0.000000
										CHANNELS 3 Xrotation Yrotation Zrotation
										JOINT RightHandMiddle3
										{
											OFFSET -6.774902 0.000000 0.000000
											CHANNELS 3 Xrotation Yrotation Zrotation
											JOINT RightHandMiddle4
											{
												OFFSET -5.403328 0.000000 0.000000
												CHANNELS 3 Xrotation Yrotation Zrotation
												End Site
												{
													OFFSET 0.027702 5.403244 0.017457
												}
											}
										}
									}
								}
								JOINT RightHandRing1
								{
									OFFSET -22.908302 -0.839325 -6.020576
									CHANNELS 3 Xrotation Yrotation Zrotation
									JOINT RightHandRing2
									{
										OFFSET -6.337502 0.000000 0.000000
										CHANNELS 3 Xrotation Yrotation Zrotation
										JOINT RightHandRing3
										{
											OFFSET -5.779297 0.000000 0.000000
											CHANNELS 3 Xrotation Yrotation Zrotation
											JOINT RightHandRing4
											{
												OFFSET -4.965698 0.000000 0.000000
												CHANNELS 3 Xrotation Yrotation Zrotation
												End Site
												{
													OFFSET 0.000000 4.965668 0.016226
												}
											}
										}
									}
								}
								JOINT RightHandPinky1
								{
									OFFSET -20.037003 -1.530334 -10.950259
									CHANNELS 3 Xrotation Yrotation Zrotation
									JOINT RightHandPinky2
									{
										OFFSET -5.254700 0.000000 0.000000
										CHANNELS 3 Xrotation Yrotation Zrotation
										JOINT RightHandPinky3
										{
											OFFSET -4.810204 0.000000 0.000000
											CHANNELS 3 Xrotation Yrotation Zrotation
											JOINT RightHandPinky4
											{
												OFFSET -3.647202 0.000000 0.000000
												CHANNELS 3 Xrotation Yrotation Zrotation
												End Site
												{
													OFFSET 0.000000 3.647186 0.011917
												}
											}
										}
									}
								}
							}
						}
					}
				}
			}
		}
	}
	JOINT LeftUpLeg
	{
		OFFSET 15.427100 -6.655098 0.678600
		CHANNELS 3 Xrotation Yrotation Zrotation
		JOINT LeftLeg
		{
			OFFSET 4.081073 -39.591068 13.024000
			CHANNELS 3 Xrotation Yrotation Zrotation
			JOINT LeftFoot
			{
				OFFSET -4.081074 -37.707932 -15.979700
				CHANNELS 3 Xrotation Yrotation Zrotation
				JOINT LeftToeBase
				{
					OFFSET 5.346399 -15.068900 20.645000
					CHANNELS 3 Xrotation Yrotation Zrotation
					JOINT LeftToe_End
					{
						OFFSET 2.754700 0.931300 11.300900
						CHANNELS 3 Xrotation Yrotation Zrotation
						End Site
						{
							OFFSET 0.000000 11.669021 0.000000
						}
					}
				}
			}
		}
	}
	JOINT RightUpLeg
	{
		OFFSET -15.569500 -6.655098 0.678600
		CHANNELS 3 Xrotation Yrotation Zrotation
		JOINT RightLeg
		{
			OFFSET -4.081825 -39.591045 13.023800
			CHANNELS 3 Xrotation Yrotation Zrotation
			JOINT RightFoot
			{
				OFFSET 4.081824 -37.707954 -15.979600
				CHANNELS 3 Xrotation Yrotation Zrotation
				JOINT RightToeBase
				{
					OFFSET -5.346400 -15.068900 20.645000
					CHANNELS 3 Xrotation Yrotation Zrotation
					JOINT RightToe_End
					{
						OFFSET -2.754700 0.931300 11.300900
						CHANNELS 3 Xrotation Yrotation Zrotation
						End Site
						{
							OFFSET 0.000000 11.669021 0.000000
						}
					}
				}
			}
		}
	}
}
MOTION
Frames: 5
Frame Time: 0.033333
2.961703 80.062439 17.764448 -3.264112 -6.834781 2.966446 15.968262 0.789514 -11.734624 6.063318 0.122239 -0.410384 6.062307 0.184660 -0.405093 -0.398222 0.874908 0.247474 -14.703365 1.635625 8.810548 0.000001 0.000000 -0.000000 -1.788017 11.927128 7.897916 16.669297 -10.880812 -80.418080 -0.000010 -54.124588 -0.000004 2.567518 -16.016162 23.416902 7.667696 3.743937 9.578469 4.699290 17.310976 1.437840 -0.579463 1.574992 2.538715 0.000000 -0.000001 0.000000 -0.141869 -3.326206 -2.561600 0.027525 0.616204 -5.113112 0.035112 0.695900 -5.776481 0.000001 -0.000001 0.000001 0.282483 2.878593 -6.337093 0.099291 1.167442 -9.721620 0.069976 0.981191 -8.158889 -0.000001 -0.000001 0.000000 2.022111 10.327329 -11.384519 0.260227 1.878682 -15.771387 0.131301 1.340909 -11.184209 -0.000001 0.000002 -0.000001 5.963476 20.457093 -16.211978 0.438623 -1.644149 -20.925084 0.182631 1.578432 -13.199154 -0.000001 -0.000000 -0.000001 0.265625 1.306938 -7.416204 -12.948001 57.157858 61.371804 0.000039 74.597557 -0.000036 -15.627394 8.770895 -57.101263 -2.952578 -4.163048 -18.871616 5.177095 -14.588970 -0.641917 -1.273757 0.137322 -2.094869 -0.000001 -0.000003 -0.000003 -0.624967 2.644415 10.974371 0.178913 -1.570277 12.999522 0.010539 -0.383434 3.148019 -0.000001 0.000000 -0.000000 -0.144015 -0.431479 15.593052 0.369572 -2.240789 18.728071 -0.612088 -0.987540 7.398752 -0.000000 0.000001 0.000000 1.065449 -3.991661 21.914869 0.694013 -3.033016 25.771420 -0.616062 -1.630809 12.096090 -0.000002 -0.000000 0.000001 2.729709 -6.825956 28.063927 0.990663 -3.582143 30.909748 0.238298 -1.808184 15.013425 -0.000001 -0.000000 0.000003 -34.864595 16.564725 -3.817216 43.550055 8.816318 -0.550662 -6.834999 -0.772677 9.474698 -5.069753 -0.000001 -0.000005 0.000000 0.000000 -0.000000 -27.098898 -7.918942 -20.020152 87.779283 6.963684 2.020670 1.443522 1.503409 20.797106 -3.441742 -0.000009 -0.000008 0.000001 0.000000 0.000002 
-1.792744 79.000221 17.758423 -4.966662 -7.003514 -2.123991 19.886241 0.176378 -10.846357 5.432627 0.111491 -0.271596 5.431676 0.159924 -0.268848 -0.399261 1.094344 0.309561 -16.385883 1.116896 13.044440 0.000000 -0.000000 0.000000 -0.748991 8.277747 3.343923 1.902450 -20.770699 -76.825722 -0.000021 -58.671728 -0.000039 2.396459 -13.926308 25.458847 7.667693 3.743944 9.578466 4.699288 17.310976 1.437841 -0.579466 1.574988 2.538715 0.000002 -0.000000 -0.000002 -0.307737 -2.949036 -5.590947 0.030549 0.649273 -5.388233 0.034101 0.685789 -5.692387 -0.000001 -0.000003 0.000000 0.437982 3.212674 -9.263248 0.108362 1.219197 -10.157347 0.069346 0.976772 -8.121821 -0.000002 -0.000001 0.000001 2.562649 10.562684 -14.365553 0.274634 1.928941 -16.205097 0.132361 1.346258 -11.229401 -0.000000 -0.000000 0.000001 7.101371 20.475652 -19.465570 0.450560 -1.613165 -21.199813 0.186449 1.594589 -13.336811 0.000002 -0.000001 -0.000002 -0.582126 -3.800000 -8.671384 -6.189388 49.236088 62.388054 -0.000037 62.848204 0.000050 -12.745609 3.150598 -52.625242 -2.952586 -4.163050 -18.871621 5.177098 -14.588968 -0.641915 -1.273753 0.137319 -2.094869 -0.000002 0.000002 -0.000001 -0.489606 3.005714 8.228900 0.150314 -1.440853 11.911207 0.007543 -0.324450 2.663406 0.000001 0.000001 0.000001 -0.156323 -0.101679 12.944879 0.323845 -2.101213 17.521343 -0.632000 -0.920808 6.885675 -0.000000 0.000003 -0.000004 0.886666 -3.713965 19.254751 0.631513 -2.900202 24.563899 -0.640113 -1.561718 11.561811 0.000004 -0.000001 0.000001 2.404659 -6.614590 25.287128 0.923556 -3.467798 29.818021 0.221418 -1.744098 14.469112 0.000002 -0.000002 -0.000002 -38.943573 13.372815 4.923659 49.654341 6.724130 1.573494 -8.100035 -0.028696 4.622772 -2.043453 0.000001 -0.000001 -0.000000 -0.000000 -0.000000 -33.283225 -3.004351 -25.164580 101.624622 5.545763 -0.389433 -0.596516 1.501724 15.173632 -4.495441 -0.000015 0.000001 0.000003 0.000000 -0.000001 
-6.922789 81.066620 18.176231 -5.970262 -5.567475 -7.118945 23.573425 -0.520085 -8.990637 4.811689 0.085074 -0.145960 4.811086 0.117043 -0.145232 -0.399884 1.209203 0.342058 -17.340790 0.299465 16.483502 0.000001 0.000000 0.000000 -0.231946 4.075595 2.770444 -14.084268 -34.925066 -72.523072 -0.000003 -60.869013 -0.000003 1.513501 -10.207015 29.588636 7.667697 3.743939 9.578466 4.699288 17.310974 1.437846 -0.579465 1.574991 2.538715 0.000003 -0.000002 -0.000001 -0.386315 -2.748696 -7.172275 0.039501 0.737964 -6.127074 0.032440 0.669031 -5.552772 0.000000 -0.000000 0.000001 0.525979 3.383890 -10.792253 0.125958 1.313639 -10.953741 0.070034 0.981528 -8.161695 0.000001 0.000003 0.000005 2.849893 10.674536 -15.924231 0.302035 2.020756 -17.000006 0.137781 1.373271 -11.457840 0.000001 -0.000000 -0.000001 7.695648 20.461281 -21.164825 0.483331 -1.530259 -21.937661 0.196870 1.637929 -13.706478 -0.000000 0.000000 -0.000001 -1.691416 -8.728137 -11.545006 0.003854 41.843440 64.688981 -0.000000 50.318147 -0.000004 -8.361438 -4.185137 -47.892368 -2.952581 -4.163053 -18.871620 5.177096 -14.588970 -0.641917 -1.273757 0.137318 -2.094867 -0.000000 0.000001 -0.000000 0.067314 4.127908 -0.704543 0.140266 -1.392354 11.504520 0.002514 -0.187359 1.537517 -0.000000 -0.000002 -0.000000 -0.091161 0.967796 4.340334 0.291584 -1.996227 16.618919 -0.665068 -0.826911 6.162474 0.000001 -0.000002 -0.000001 0.398346 -2.759865 10.623129 0.586621 -2.799997 23.660865 -0.687377 -1.518417 11.180883 0.000003 0.000000 0.000001 1.427065 -5.824647 16.282404 0.899039 -3.424729 29.410129 0.215268 -1.720098 14.265729 0.000003 0.000001 -0.000001 -38.622613 8.340080 13.089499 48.434190 2.248951 1.020990 -6.136157 1.157084 1.469932 -0.174953 0.000004 -0.000000 -0.000000 0.000000 0.000000 -39.645720 2.947408 -29.102275 108.714366 3.049563 -2.807110 -0.182871 0.254865 9.591864 -6.275375 -0.000003 0.000008 0.000002 0.000000 0.000002 
-11.029650 85.943649 18.896914 -4.946265 -3.276986 -12.340523 25.135808 -1.102888 -5.879222 4.443461 0.030561 -0.012699 4.443359 0.042853 -0.012753 -0.400708 1.345139 0.380521 -17.786465 -0.161931 19.365569 -0.000001 0.000000 -0.000000 0.085161 0.211108 5.960877 -31.499767 -47.499902 -71.913511 0.000022 -60.864437 0.000017 1.606172 -7.362892 33.476137 7.667698 3.743941 9.578469 4.699285 17.310976 1.437846 -0.579464 1.574990 2.538715 0.000001 0.000000 -0.000000 -0.310991 -2.940972 -5.654888 0.058312 0.896056 -7.446637 0.032244 0.666978 -5.535727 -0.000000 0.000001 -0.000001 0.441458 3.219631 -9.325062 0.154304 1.452475 -12.128616 0.074904 1.015031 -8.442342 0.000001 0.000000 0.000001 2.574221 10.567351 -14.428532 0.344839 2.155716 -18.174718 0.150770 1.435871 -11.987913 0.000001 -0.000001 -0.000000 7.125427 20.475381 -19.534278 0.544526 -1.383271 -23.255397 0.216184 1.715156 -14.366700 -0.000000 -0.000001 0.000002 -2.554296 -10.935473 -14.983167 6.624865 35.512660 67.779410 -0.000001 37.474506 0.000004 -2.229221 -10.390462 -41.475344 -2.952578 -4.163047 -18.871616 5.177098 -14.588972 -0.641917 -1.273755 0.137321 -2.094866 -0.000002 0.000000 -0.000000 1.569936 5.956718 -17.674527 0.132916 -1.355783 11.198321 0.000308 -0.065925 0.540928 -0.000002 -0.000002 0.000001 0.464427 2.912295 -11.958229 0.249295 -1.848736 15.358498 -0.681112 -0.758706 5.645579 0.000000 -0.000001 -0.000002 -0.111739 -0.802945 -5.672480 0.526549 -2.658854 22.399568 -0.735442 -1.499484 10.976683 -0.000002 -0.000002 -0.000001 -0.030320 -3.960033 -0.679786 0.880779 -3.392179 29.103047 0.210690 -1.702031 14.112568 0.000001 -0.000001 0.000002 -35.763499 3.629510 19.884045 41.005423 -0.732081 -0.008990 -2.301431 2.287434 -1.017173 -0.447329 -0.000004 -0.000002 0.000000 -0.000001 0.000000 -42.720603 10.070058 -35.830664 107.336880 1.131937 -1.034205 0.489126 0.649054 5.285810 -6.454670 -0.000012 0.000010 -0.000000 0.000001 0.000002 
-13.466175 92.855217 19.468708 -1.861311 -1.537506 -17.654128 23.942255 -1.663887 -1.832197 4.451486 -0.044320 0.026040 4.451277 -0.061814 0.025977 -0.402372 1.583134 0.447878 -18.351868 0.138372 21.610034 -0.000001 0.000000 -0.000000 0.380124 -2.352582 11.726386 -54.945689 -53.045404 -77.828250 -0.000006 -57.714135 -0.000007 5.841250 -7.447881 33.321218 7.667696 3.743942 9.578469 4.699292 17.310973 1.437846 -0.579464 1.574990 2.538715 -0.000005 -0.000000 -0.000000 -0.049524 -3.515255 -1.013965 0.084369 1.076775 -8.960213 0.033862 0.683499 -5.673285 0.000000 -0.000000 0.000000 0.209722 2.705071 -4.843697 0.185742 1.591597 -13.311329 0.083358 1.070319 -8.905879 0.000000 0.000000 0.000001 1.751253 10.196603 -9.864221 0.390775 2.290820 -19.358870 0.168567 1.517212 -12.678394 0.000001 -0.000002 -0.000004 5.383480 20.424291 -14.551363 0.618861 -1.216474 -24.766826 0.239411 1.803453 -15.123975 -0.000001 0.000001 0.000001 -2.748370 -9.847388 -18.516677 14.032736 30.265323 70.689965 -0.000008 25.326434 -0.000006 4.877091 -12.613279 -33.198572 -2.952577 -4.163048 -18.871615 5.177094 -14.588973 -0.641916 -1.273760 0.137320 -2.094867 -0.000000 0.000000 -0.000000 3.809365 7.382822 -36.777816 0.102387 -1.191309 9.824898 0.000015 0.000345 -0.002850 -0.000004 -0.000002 0.000001 1.706511 4.803512 -30.260139 0.177688 -1.564945 12.954660 -0.678538 -0.703128 5.236207 -0.000001 0.000001 0.000000 -0.007042 1.455696 -23.891406 0.420657 -2.386127 19.994320 -0.773360 -1.442083 10.514951 -0.000001 -0.000001 0.000001 -0.934434 -1.476908 -19.565786 0.801045 -3.245053 27.725659 0.190777 -1.620782 13.425620 0.000000 0.000000 -0.000002 -31.949217 2.122906 25.863220 28.629233 0.894645 -0.236217 2.938419 2.466207 -2.909972 -2.257689 0.000007 0.000000 0.000000 -0.000002 -0.000000 -44.144742 11.715793 -41.866573 99.156254 -2.373162 1.295192 -1.073612 1.259938 3.881162 -5.159789 -0.000018 0.000011 -0.000002 0.000001 0.000003 
